REM DIRINDEX 1\2,1\3,1\4,1\5
REM DIRNAME "folder01","folder02","folder03","folder04","folder05"
TITLE ""
FILE "P1Q_t_0778-0787.mp3" MP3
  TRACK 01 AUDIO
    TITLE "3:cjc173_3276"
    INDEX 01 00:00:00
  TRACK 02 AUDIO
    TITLE "0:"
    INDEX 01 00:01:18
  TRACK 03 AUDIO
    TITLE "4:cjc173_3277"
    INDEX 01 00:01:41
  TRACK 04 AUDIO
    TITLE "0:"
    INDEX 01 00:04:43
  TRACK 05 AUDIO
    TITLE "5:cjc173_3278"
    INDEX 01 00:04:65
  TRACK 06 AUDIO
    TITLE "0:"
    INDEX 01 00:08:74
  TRACK 07 AUDIO
    TITLE "3:cjc173_3279"
    INDEX 01 00:09:45
  TRACK 08 AUDIO
    TITLE "0:"
    INDEX 01 00:10:67
  TRACK 09 AUDIO
    TITLE "4:cjc173_3280"
    INDEX 01 00:11:12
  TRACK 10 AUDIO
    TITLE "0:"
    INDEX 01 00:13:60
  TRACK 11 AUDIO
    TITLE "5:cjc173_3281"
    INDEX 01 00:14:07
  TRACK 12 AUDIO
    TITLE "0:"
    INDEX 01 00:19:00
  TRACK 13 AUDIO
    TITLE "3:cjc173_3282"
    INDEX 01 00:19:45
  TRACK 14 AUDIO
    TITLE "0:"
    INDEX 01 00:20:54
  TRACK 15 AUDIO
    TITLE "4:cjc173_3283"
    INDEX 01 00:21:03
  TRACK 16 AUDIO
    TITLE "0:"
    INDEX 01 00:24:01
  TRACK 17 AUDIO
    TITLE "5:cjc173_3284"
    INDEX 01 00:24:21
  TRACK 18 AUDIO
    TITLE "0:"
    INDEX 01 00:29:10
  TRACK 19 AUDIO
    TITLE "3:cjc173_3285"
    INDEX 01 00:29:59
  TRACK 20 AUDIO
    TITLE "0:"
    INDEX 01 00:30:74
  TRACK 21 AUDIO
    TITLE "4:cjc173_3286"
    INDEX 01 00:31:23
  TRACK 22 AUDIO
    TITLE "0:"
    INDEX 01 00:34:66
  TRACK 23 AUDIO
    TITLE "5:cjc173_3287"
    INDEX 01 00:35:13
  TRACK 24 AUDIO
    TITLE "0:"
    INDEX 01 00:40:43
  TRACK 25 AUDIO
    TITLE "3:cjc173_3288"
    INDEX 01 00:41:15
  TRACK 26 AUDIO
    TITLE "0:"
    INDEX 01 00:42:36
  TRACK 27 AUDIO
    TITLE "4:cjc173_3289"
    INDEX 01 00:42:58
  TRACK 28 AUDIO
    TITLE "0:"
    INDEX 01 00:44:25
  TRACK 29 AUDIO
    TITLE "5:cjc173_3290"
    INDEX 01 00:44:47
  TRACK 30 AUDIO
    TITLE "0:"
    INDEX 01 00:49:09
  TRACK 31 AUDIO
    TITLE "3:cjc173_3291"
    INDEX 01 00:49:56
  TRACK 32 AUDIO
    TITLE "0:"
    INDEX 01 00:50:73
  TRACK 33 AUDIO
    TITLE "4:cjc173_3292"
    INDEX 01 00:51:19
  TRACK 34 AUDIO
    TITLE "0:"
    INDEX 01 00:54:37
  TRACK 35 AUDIO
    TITLE "5:cjc173_3293"
    INDEX 01 00:54:59
  TRACK 36 AUDIO
    TITLE "0:"
    INDEX 01 00:59:48
  TRACK 37 AUDIO
    TITLE "3:cjc173_3294"
    INDEX 01 01:00:20
  TRACK 38 AUDIO
    TITLE "0:"
    INDEX 01 01:01:24
  TRACK 39 AUDIO
    TITLE "4:cjc173_3295"
    INDEX 01 01:01:47
  TRACK 40 AUDIO
    TITLE "0:"
    INDEX 01 01:03:66
  TRACK 41 AUDIO
    TITLE "5:cjc173_3296"
    INDEX 01 01:04:10
  TRACK 42 AUDIO
    TITLE "0:"
    INDEX 01 01:08:06
  TRACK 43 AUDIO
    TITLE "3:cjc173_3297"
    INDEX 01 01:08:51
  TRACK 44 AUDIO
    TITLE "0:"
    INDEX 01 01:10:03
  TRACK 45 AUDIO
    TITLE "4:cjc173_3298"
    INDEX 01 01:10:25
  TRACK 46 AUDIO
    TITLE "0:"
    INDEX 01 01:11:42
  TRACK 47 AUDIO
    TITLE "5:cjc173_3299"
    INDEX 01 01:11:61
  TRACK 48 AUDIO
    TITLE "0:"
    INDEX 01 01:15:43
  TRACK 49 AUDIO
    TITLE "3:cjc173_3300"
    INDEX 01 01:16:13
  TRACK 50 AUDIO
    TITLE "0:"
    INDEX 01 01:17:21
  TRACK 51 AUDIO
    TITLE "4:cjc173_3301"
    INDEX 01 01:17:42
  TRACK 52 AUDIO
    TITLE "0:"
    INDEX 01 01:21:13
  TRACK 53 AUDIO
    TITLE "5:cjc173_3302"
    INDEX 01 01:21:34
  TRACK 54 AUDIO
    TITLE "0:"
    INDEX 01 01:25:24
  TRACK 55 AUDIO
    TITLE "3:cjc173_3303"
    INDEX 01 01:25:73
  TRACK 56 AUDIO
    TITLE "0:"
    INDEX 01 01:27:05
  TRACK 57 AUDIO
    TITLE "4:cjc173_3304"
    INDEX 01 01:27:27
  TRACK 58 AUDIO
    TITLE "0:"
    INDEX 01 01:30:47
  TRACK 59 AUDIO
    TITLE "5:cjc173_3305"
    INDEX 01 01:30:66
  TRACK 60 AUDIO
    TITLE "0:"
    INDEX 01 01:35:03
